<svg viewBox="0 0 15 15" xmlns="http://www.w3.org/2000/svg">
<g clip-path="url(#clip0_18_313)">
<path d="M14.0675 10.5202L12.1377 8.59042C11.4485 7.9012 10.2768 8.17691 10.0011 9.07287C9.79433 9.6932 9.10511 10.0378 8.48481 9.89994C7.10637 9.55533 5.24547 7.76335 4.90086 6.31599C4.69409 5.69566 5.10763 5.00644 5.72792 4.7997C6.62391 4.52402 6.8996 3.35234 6.21038 2.66312L4.28056 0.733301C3.72918 0.250846 2.90212 0.250846 2.41966 0.733301L1.11014 2.04282C-0.199375 3.42126 1.24799 7.07413 4.48733 10.3135C7.72667 13.5528 11.3795 15.0691 12.758 13.6907L14.0675 12.3811C14.55 11.8298 14.55 11.0027 14.0675 10.5202Z"/>
</g>
<defs>
<clipPath id="clip0_18_313">
<rect width="13.8286" height="13.8286" fill="white" transform="translate(0.615295 0.37146)"/>
</clipPath>
</defs>
</svg>
