<svg viewBox="0 0 15 15" xmlns="http://www.w3.org/2000/svg">
<g clip-path="url(#clip0_18_301)">
<path d="M11.3096 10.5114C10.4246 10.5114 9.69489 11.2255 9.69489 12.126C9.69489 13.011 10.4091 13.7407 11.3096 13.7407C12.1945 13.7407 12.9243 13.0265 12.9243 12.126C12.9087 11.2411 12.1945 10.5114 11.3096 10.5114Z" />
<path d="M14.1508 2.81057C14.1198 2.81057 14.0732 2.79505 14.0266 2.79505H4.24533L4.09008 1.75482C3.99692 1.07168 3.40694 0.559326 2.70828 0.559326H1.45068C1.10912 0.559326 0.829651 0.838791 0.829651 1.18036C0.829651 1.52193 1.10912 1.80139 1.45068 1.80139H2.70828C2.78591 1.80139 2.84801 1.8635 2.86353 1.94113L3.82614 8.49302C3.95034 9.31589 4.66453 9.93693 5.50293 9.93693H11.9617C12.769 9.93693 13.4677 9.36247 13.6385 8.57065L14.6476 3.52476C14.7097 3.19872 14.4924 2.87267 14.1508 2.81057Z" />
<path d="M7.35052 12.0484C7.31946 11.1945 6.60528 10.5114 5.75135 10.5114C4.85086 10.5579 4.16772 11.3032 4.19877 12.1881C4.22982 13.0421 4.92849 13.7252 5.78241 13.7252H5.81346C6.69843 13.6786 7.39709 12.9334 7.35052 12.0484Z" />
</g>
<defs>
<clipPath id="clip0_18_301">
<rect width="13.8286" height="13.8286" fill="white" transform="translate(0.829651 0.235718)"/>
</clipPath>
</defs>
</svg>
