<?xml version="1.0" encoding="UTF-8" standalone="no"?><svg xmlns="http://www.w3.org/2000/svg" xmlns:xlink="http://www.w3.org/1999/xlink"><symbol id="phone-call" viewBox="0 0 15 15" xmlns="http://www.w3.org/2000/svg"><g clip-path="url(#clip0_18_313)"><path d="M14.0675 10.5202L12.1377 8.59042C11.4485 7.9012 10.2768 8.17691 10.0011 9.07287C9.79433 9.6932 9.10511 10.0378 8.48481 9.89994C7.10637 9.55533 5.24547 7.76335 4.90086 6.31599C4.69409 5.69566 5.10763 5.00644 5.72792 4.7997C6.62391 4.52402 6.8996 3.35234 6.21038 2.66312L4.28056 0.733301C3.72918 0.250846 2.90212 0.250846 2.41966 0.733301L1.11014 2.04282C-0.199375 3.42126 1.24799 7.07413 4.48733 10.3135C7.72667 13.5528 11.3795 15.0691 12.758 13.6907L14.0675 12.3811C14.55 11.8298 14.55 11.0027 14.0675 10.5202Z"></path></g><defs><clipPath><rect width="13.8286" height="13.8286" fill="white" transform="translate(0.615295 0.37146)"></rect></clipPath></defs></symbol><symbol id="telegram" viewBox="0 0 16 16" xmlns="http://www.w3.org/2000/svg"><g clip-path="url(#clip0_18_297)"><path d="M6.16622 9.66539L5.92318 13.0839C6.27091 13.0839 6.42151 12.9346 6.60211 12.7552L8.2324 11.1971L11.6105 13.671C12.2301 14.0163 12.6666 13.8345 12.8337 13.1011L15.0511 2.71077L15.0517 2.71016C15.2482 1.7943 14.7205 1.43617 14.1169 1.66084L1.0831 6.65091C0.193573 6.99619 0.207042 7.49207 0.931889 7.71675L4.26411 8.75321L12.0042 3.91008C12.3684 3.66887 12.6996 3.80233 12.4272 4.04354L6.16622 9.66539Z"></path></g><defs><clipPath><rect width="14.6929" height="14.6929" fill="white" transform="translate(0.401093 0.37146)"></rect></clipPath></defs></symbol><symbol id="shopping-cart" viewBox="0 0 15 15" xmlns="http://www.w3.org/2000/svg"><g clip-path="url(#clip0_18_301)"><path d="M11.3096 10.5114C10.4246 10.5114 9.69489 11.2255 9.69489 12.126C9.69489 13.011 10.4091 13.7407 11.3096 13.7407C12.1945 13.7407 12.9243 13.0265 12.9243 12.126C12.9087 11.2411 12.1945 10.5114 11.3096 10.5114Z"></path><path d="M14.1508 2.81057C14.1198 2.81057 14.0732 2.79505 14.0266 2.79505H4.24533L4.09008 1.75482C3.99692 1.07168 3.40694 0.559326 2.70828 0.559326H1.45068C1.10912 0.559326 0.829651 0.838791 0.829651 1.18036C0.829651 1.52193 1.10912 1.80139 1.45068 1.80139H2.70828C2.78591 1.80139 2.84801 1.8635 2.86353 1.94113L3.82614 8.49302C3.95034 9.31589 4.66453 9.93693 5.50293 9.93693H11.9617C12.769 9.93693 13.4677 9.36247 13.6385 8.57065L14.6476 3.52476C14.7097 3.19872 14.4924 2.87267 14.1508 2.81057Z"></path><path d="M7.35052 12.0484C7.31946 11.1945 6.60528 10.5114 5.75135 10.5114C4.85086 10.5579 4.16772 11.3032 4.19877 12.1881C4.22982 13.0421 4.92849 13.7252 5.78241 13.7252H5.81346C6.69843 13.6786 7.39709 12.9334 7.35052 12.0484Z"></path></g><defs><clipPath><rect width="13.8286" height="13.8286" fill="white" transform="translate(0.829651 0.235718)"></rect></clipPath></defs></symbol></svg>